<mxfile host="app.diagrams.net" modified="2021-10-12T15:21:25.085Z" agent="5.0 (Windows NT 10.0; Win64; x64) AppleWebKit/537.36 (KHTML, like Gecko) Chrome/90.0.4430.232 Whale/2.10.124.26 Safari/537.36" etag="f2Qp8xe_vEp2FGDNZSsq" version="15.5.2" type="github">
  <diagram id="C5RBs43oDa-KdzZeNtuy" name="Page-1">
    <mxGraphModel dx="995" dy="858" grid="1" gridSize="10" guides="1" tooltips="1" connect="1" arrows="1" fold="1" page="1" pageScale="1" pageWidth="827" pageHeight="1169" math="0" shadow="0">
      <root>
        <mxCell id="WIyWlLk6GJQsqaUBKTNV-0" />
        <mxCell id="WIyWlLk6GJQsqaUBKTNV-1" parent="WIyWlLk6GJQsqaUBKTNV-0" />
        <mxCell id="zkfFHV4jXpPFQw0GAbJ--6" value="차량" style="swimlane;fontStyle=0;align=center;verticalAlign=top;childLayout=stackLayout;horizontal=1;startSize=20;horizontalStack=0;resizeParent=1;resizeLast=0;collapsible=1;marginBottom=0;rounded=0;shadow=0;strokeWidth=1;" parent="WIyWlLk6GJQsqaUBKTNV-1" vertex="1">
          <mxGeometry x="50" y="40" width="260" height="408" as="geometry">
            <mxRectangle x="130" y="380" width="160" height="26" as="alternateBounds" />
          </mxGeometry>
        </mxCell>
        <mxCell id="xL30vaA1XtINNJM-GDdg-2" value="+속력&#xa;    - 일반주행 최고속력" style="text;align=left;verticalAlign=top;spacingLeft=4;spacingRight=4;overflow=hidden;rotatable=0;points=[[0,0.5],[1,0.5]];portConstraint=eastwest;" vertex="1" parent="zkfFHV4jXpPFQw0GAbJ--6">
          <mxGeometry y="20" width="260" height="40" as="geometry" />
        </mxCell>
        <mxCell id="zkfFHV4jXpPFQw0GAbJ--7" value="+감속&#xa;    - 감속량" style="text;align=left;verticalAlign=top;spacingLeft=4;spacingRight=4;overflow=hidden;rotatable=0;points=[[0,0.5],[1,0.5]];portConstraint=eastwest;" parent="zkfFHV4jXpPFQw0GAbJ--6" vertex="1">
          <mxGeometry y="60" width="260" height="40" as="geometry" />
        </mxCell>
        <mxCell id="zkfFHV4jXpPFQw0GAbJ--8" value="+부스터&#xa;    - 부스터 최고속력&#xa;    - 부스터 지속시간" style="text;align=left;verticalAlign=top;spacingLeft=4;spacingRight=4;overflow=hidden;rotatable=0;points=[[0,0.5],[1,0.5]];portConstraint=eastwest;rounded=0;shadow=0;html=0;" parent="zkfFHV4jXpPFQw0GAbJ--6" vertex="1">
          <mxGeometry y="100" width="260" height="60" as="geometry" />
        </mxCell>
        <mxCell id="xL30vaA1XtINNJM-GDdg-3" value="+스티어링&#xa;    - 스티어링속도(idle ~ steer까지 걸리는 시간)&#xa;    - 방향전환량(steer 시 회전각량)" style="text;align=left;verticalAlign=top;spacingLeft=4;spacingRight=4;overflow=hidden;rotatable=0;points=[[0,0.5],[1,0.5]];portConstraint=eastwest;rounded=0;shadow=0;html=0;" vertex="1" parent="zkfFHV4jXpPFQw0GAbJ--6">
          <mxGeometry y="160" width="260" height="60" as="geometry" />
        </mxCell>
        <mxCell id="xL30vaA1XtINNJM-GDdg-4" value="+안전성&#xa;    - 무게중심&#xa;    - 복귀력" style="text;align=left;verticalAlign=top;spacingLeft=4;spacingRight=4;overflow=hidden;rotatable=0;points=[[0,0.5],[1,0.5]];portConstraint=eastwest;rounded=0;shadow=0;html=0;" vertex="1" parent="zkfFHV4jXpPFQw0GAbJ--6">
          <mxGeometry y="220" width="260" height="60" as="geometry" />
        </mxCell>
        <mxCell id="xL30vaA1XtINNJM-GDdg-64" value="+드리프트&#xa;    -드리프트 탈출력&#xa;    -구심력 감소속도" style="text;align=left;verticalAlign=top;spacingLeft=4;spacingRight=4;overflow=hidden;rotatable=0;points=[[0,0.5],[1,0.5]];portConstraint=eastwest;rounded=0;shadow=0;html=0;" vertex="1" parent="zkfFHV4jXpPFQw0GAbJ--6">
          <mxGeometry y="280" width="260" height="60" as="geometry" />
        </mxCell>
        <mxCell id="zkfFHV4jXpPFQw0GAbJ--9" value="" style="line;html=1;strokeWidth=1;align=left;verticalAlign=middle;spacingTop=-1;spacingLeft=3;spacingRight=3;rotatable=0;labelPosition=right;points=[];portConstraint=eastwest;" parent="zkfFHV4jXpPFQw0GAbJ--6" vertex="1">
          <mxGeometry y="340" width="260" height="8" as="geometry" />
        </mxCell>
        <mxCell id="xL30vaA1XtINNJM-GDdg-6" value="+Component&#xa;    - Rigidbody&#xa;    - Box Collider" style="text;align=left;verticalAlign=top;spacingLeft=4;spacingRight=4;overflow=hidden;rotatable=0;points=[[0,0.5],[1,0.5]];portConstraint=eastwest;rounded=0;shadow=0;html=0;" vertex="1" parent="zkfFHV4jXpPFQw0GAbJ--6">
          <mxGeometry y="348" width="260" height="60" as="geometry" />
        </mxCell>
        <mxCell id="xL30vaA1XtINNJM-GDdg-12" value="전진 시" style="edgeStyle=orthogonalEdgeStyle;rounded=0;orthogonalLoop=1;jettySize=auto;html=1;exitX=0.5;exitY=0;exitDx=0;exitDy=0;entryX=0.5;entryY=0;entryDx=0;entryDy=0;" edge="1" parent="WIyWlLk6GJQsqaUBKTNV-1" source="xL30vaA1XtINNJM-GDdg-7" target="xL30vaA1XtINNJM-GDdg-8">
          <mxGeometry relative="1" as="geometry" />
        </mxCell>
        <mxCell id="xL30vaA1XtINNJM-GDdg-16" value="후진 시" style="edgeStyle=orthogonalEdgeStyle;rounded=0;orthogonalLoop=1;jettySize=auto;html=1;entryX=0.5;entryY=1;entryDx=0;entryDy=0;exitX=0.5;exitY=1;exitDx=0;exitDy=0;" edge="1" parent="WIyWlLk6GJQsqaUBKTNV-1" source="xL30vaA1XtINNJM-GDdg-7" target="xL30vaA1XtINNJM-GDdg-9">
          <mxGeometry relative="1" as="geometry" />
        </mxCell>
        <mxCell id="xL30vaA1XtINNJM-GDdg-7" value="idle" style="rounded=0;whiteSpace=wrap;html=1;" vertex="1" parent="WIyWlLk6GJQsqaUBKTNV-1">
          <mxGeometry x="94" y="557.5" width="100" height="30" as="geometry" />
        </mxCell>
        <mxCell id="xL30vaA1XtINNJM-GDdg-13" value="속력이 감소하여 0이 될때" style="edgeStyle=orthogonalEdgeStyle;rounded=0;orthogonalLoop=1;jettySize=auto;html=1;exitX=0.5;exitY=1;exitDx=0;exitDy=0;" edge="1" parent="WIyWlLk6GJQsqaUBKTNV-1" source="xL30vaA1XtINNJM-GDdg-8">
          <mxGeometry relative="1" as="geometry">
            <mxPoint x="194" y="562.5" as="targetPoint" />
            <Array as="points">
              <mxPoint x="374" y="562.5" />
            </Array>
          </mxGeometry>
        </mxCell>
        <mxCell id="xL30vaA1XtINNJM-GDdg-8" value="forward" style="rounded=0;whiteSpace=wrap;html=1;" vertex="1" parent="WIyWlLk6GJQsqaUBKTNV-1">
          <mxGeometry x="324" y="517.5" width="100" height="30" as="geometry" />
        </mxCell>
        <mxCell id="xL30vaA1XtINNJM-GDdg-17" value="속력이 감소하여 0이 될때" style="edgeStyle=orthogonalEdgeStyle;rounded=0;orthogonalLoop=1;jettySize=auto;html=1;exitX=0.5;exitY=0;exitDx=0;exitDy=0;entryX=1;entryY=0.75;entryDx=0;entryDy=0;" edge="1" parent="WIyWlLk6GJQsqaUBKTNV-1" source="xL30vaA1XtINNJM-GDdg-9" target="xL30vaA1XtINNJM-GDdg-7">
          <mxGeometry relative="1" as="geometry" />
        </mxCell>
        <mxCell id="xL30vaA1XtINNJM-GDdg-9" value="backward" style="rounded=0;whiteSpace=wrap;html=1;" vertex="1" parent="WIyWlLk6GJQsqaUBKTNV-1">
          <mxGeometry x="324" y="597.5" width="100" height="30" as="geometry" />
        </mxCell>
        <mxCell id="xL30vaA1XtINNJM-GDdg-21" value="방향키를 눌렀을 때" style="edgeStyle=orthogonalEdgeStyle;rounded=0;orthogonalLoop=1;jettySize=auto;html=1;exitX=1;exitY=0.25;exitDx=0;exitDy=0;entryX=0;entryY=0.25;entryDx=0;entryDy=0;" edge="1" parent="WIyWlLk6GJQsqaUBKTNV-1" source="xL30vaA1XtINNJM-GDdg-18" target="xL30vaA1XtINNJM-GDdg-19">
          <mxGeometry relative="1" as="geometry" />
        </mxCell>
        <mxCell id="xL30vaA1XtINNJM-GDdg-27" value="shift + steer" style="edgeStyle=orthogonalEdgeStyle;rounded=0;orthogonalLoop=1;jettySize=auto;html=1;exitX=0.5;exitY=1;exitDx=0;exitDy=0;entryX=0;entryY=0.5;entryDx=0;entryDy=0;" edge="1" parent="WIyWlLk6GJQsqaUBKTNV-1" source="xL30vaA1XtINNJM-GDdg-18" target="xL30vaA1XtINNJM-GDdg-23">
          <mxGeometry relative="1" as="geometry" />
        </mxCell>
        <mxCell id="xL30vaA1XtINNJM-GDdg-18" value="idleTorque" style="rounded=0;whiteSpace=wrap;html=1;" vertex="1" parent="WIyWlLk6GJQsqaUBKTNV-1">
          <mxGeometry x="94" y="667.5" width="100" height="30" as="geometry" />
        </mxCell>
        <mxCell id="xL30vaA1XtINNJM-GDdg-22" value="방향키를 땠을 때" style="edgeStyle=orthogonalEdgeStyle;rounded=0;orthogonalLoop=1;jettySize=auto;html=1;exitX=0;exitY=0.75;exitDx=0;exitDy=0;entryX=1;entryY=0.75;entryDx=0;entryDy=0;" edge="1" parent="WIyWlLk6GJQsqaUBKTNV-1" source="xL30vaA1XtINNJM-GDdg-19" target="xL30vaA1XtINNJM-GDdg-18">
          <mxGeometry relative="1" as="geometry" />
        </mxCell>
        <mxCell id="xL30vaA1XtINNJM-GDdg-28" style="edgeStyle=orthogonalEdgeStyle;rounded=0;orthogonalLoop=1;jettySize=auto;html=1;exitX=0.5;exitY=1;exitDx=0;exitDy=0;entryX=1;entryY=0.5;entryDx=0;entryDy=0;" edge="1" parent="WIyWlLk6GJQsqaUBKTNV-1" source="xL30vaA1XtINNJM-GDdg-19" target="xL30vaA1XtINNJM-GDdg-23">
          <mxGeometry relative="1" as="geometry" />
        </mxCell>
        <mxCell id="xL30vaA1XtINNJM-GDdg-29" value="shift" style="edgeLabel;html=1;align=center;verticalAlign=middle;resizable=0;points=[];" vertex="1" connectable="0" parent="xL30vaA1XtINNJM-GDdg-28">
          <mxGeometry x="-0.1954" y="-2" relative="1" as="geometry">
            <mxPoint as="offset" />
          </mxGeometry>
        </mxCell>
        <mxCell id="xL30vaA1XtINNJM-GDdg-19" value="Steering" style="rounded=0;whiteSpace=wrap;html=1;" vertex="1" parent="WIyWlLk6GJQsqaUBKTNV-1">
          <mxGeometry x="324" y="667.5" width="100" height="30" as="geometry" />
        </mxCell>
        <mxCell id="xL30vaA1XtINNJM-GDdg-32" style="edgeStyle=orthogonalEdgeStyle;rounded=0;orthogonalLoop=1;jettySize=auto;html=1;exitX=0.5;exitY=1;exitDx=0;exitDy=0;entryX=0.5;entryY=0;entryDx=0;entryDy=0;" edge="1" parent="WIyWlLk6GJQsqaUBKTNV-1" source="xL30vaA1XtINNJM-GDdg-23" target="xL30vaA1XtINNJM-GDdg-30">
          <mxGeometry relative="1" as="geometry" />
        </mxCell>
        <mxCell id="xL30vaA1XtINNJM-GDdg-23" value="DriftEnter" style="rounded=0;whiteSpace=wrap;html=1;" vertex="1" parent="WIyWlLk6GJQsqaUBKTNV-1">
          <mxGeometry x="204" y="757.5" width="100" height="30" as="geometry" />
        </mxCell>
        <mxCell id="xL30vaA1XtINNJM-GDdg-37" style="edgeStyle=orthogonalEdgeStyle;rounded=0;orthogonalLoop=1;jettySize=auto;html=1;exitX=0.5;exitY=1;exitDx=0;exitDy=0;entryX=0.5;entryY=0;entryDx=0;entryDy=0;" edge="1" parent="WIyWlLk6GJQsqaUBKTNV-1" source="xL30vaA1XtINNJM-GDdg-24" target="xL30vaA1XtINNJM-GDdg-36">
          <mxGeometry relative="1" as="geometry" />
        </mxCell>
        <mxCell id="xL30vaA1XtINNJM-GDdg-24" value="Shift를 누르고 있는가&lt;br&gt;&amp;amp;&amp;amp; Steering 상태인가?" style="rhombus;whiteSpace=wrap;html=1;" vertex="1" parent="WIyWlLk6GJQsqaUBKTNV-1">
          <mxGeometry x="526.5" y="490" width="170" height="85" as="geometry" />
        </mxCell>
        <mxCell id="xL30vaA1XtINNJM-GDdg-33" style="edgeStyle=orthogonalEdgeStyle;rounded=0;orthogonalLoop=1;jettySize=auto;html=1;exitX=0.5;exitY=1;exitDx=0;exitDy=0;entryX=0.5;entryY=0;entryDx=0;entryDy=0;" edge="1" parent="WIyWlLk6GJQsqaUBKTNV-1" source="xL30vaA1XtINNJM-GDdg-30" target="xL30vaA1XtINNJM-GDdg-31">
          <mxGeometry relative="1" as="geometry" />
        </mxCell>
        <mxCell id="xL30vaA1XtINNJM-GDdg-30" value="DriftContinue" style="rounded=0;whiteSpace=wrap;html=1;" vertex="1" parent="WIyWlLk6GJQsqaUBKTNV-1">
          <mxGeometry x="204" y="817.5" width="100" height="30" as="geometry" />
        </mxCell>
        <mxCell id="xL30vaA1XtINNJM-GDdg-34" style="edgeStyle=orthogonalEdgeStyle;rounded=0;orthogonalLoop=1;jettySize=auto;html=1;exitX=0.5;exitY=1;exitDx=0;exitDy=0;entryX=0;entryY=0.5;entryDx=0;entryDy=0;" edge="1" parent="WIyWlLk6GJQsqaUBKTNV-1" source="xL30vaA1XtINNJM-GDdg-31" target="xL30vaA1XtINNJM-GDdg-18">
          <mxGeometry relative="1" as="geometry" />
        </mxCell>
        <mxCell id="xL30vaA1XtINNJM-GDdg-35" style="edgeStyle=orthogonalEdgeStyle;rounded=0;orthogonalLoop=1;jettySize=auto;html=1;exitX=0.5;exitY=1;exitDx=0;exitDy=0;entryX=1;entryY=0.5;entryDx=0;entryDy=0;" edge="1" parent="WIyWlLk6GJQsqaUBKTNV-1" source="xL30vaA1XtINNJM-GDdg-31" target="xL30vaA1XtINNJM-GDdg-19">
          <mxGeometry relative="1" as="geometry" />
        </mxCell>
        <mxCell id="xL30vaA1XtINNJM-GDdg-31" value="DriftEnd" style="rounded=0;whiteSpace=wrap;html=1;" vertex="1" parent="WIyWlLk6GJQsqaUBKTNV-1">
          <mxGeometry x="204" y="877.5" width="100" height="30" as="geometry" />
        </mxCell>
        <mxCell id="xL30vaA1XtINNJM-GDdg-36" value="DriftMode" style="swimlane;" vertex="1" parent="WIyWlLk6GJQsqaUBKTNV-1">
          <mxGeometry x="469" y="617.5" width="285" height="120" as="geometry" />
        </mxCell>
        <mxCell id="xL30vaA1XtINNJM-GDdg-44" style="edgeStyle=orthogonalEdgeStyle;rounded=0;orthogonalLoop=1;jettySize=auto;html=1;exitX=0.5;exitY=1;exitDx=0;exitDy=0;entryX=0.5;entryY=0;entryDx=0;entryDy=0;" edge="1" parent="xL30vaA1XtINNJM-GDdg-36" source="xL30vaA1XtINNJM-GDdg-40" target="xL30vaA1XtINNJM-GDdg-41">
          <mxGeometry relative="1" as="geometry" />
        </mxCell>
        <mxCell id="xL30vaA1XtINNJM-GDdg-46" style="edgeStyle=orthogonalEdgeStyle;rounded=0;orthogonalLoop=1;jettySize=auto;html=1;exitX=1;exitY=0.5;exitDx=0;exitDy=0;entryX=0;entryY=0.5;entryDx=0;entryDy=0;" edge="1" parent="xL30vaA1XtINNJM-GDdg-36" source="xL30vaA1XtINNJM-GDdg-40" target="xL30vaA1XtINNJM-GDdg-45">
          <mxGeometry relative="1" as="geometry" />
        </mxCell>
        <mxCell id="xL30vaA1XtINNJM-GDdg-40" value="Shift를 누르고 있는가" style="rhombus;whiteSpace=wrap;html=1;" vertex="1" parent="xL30vaA1XtINNJM-GDdg-36">
          <mxGeometry y="22.5" width="140" height="47.5" as="geometry" />
        </mxCell>
        <mxCell id="xL30vaA1XtINNJM-GDdg-41" value="차량 감속" style="rounded=0;whiteSpace=wrap;html=1;align=left;" vertex="1" parent="xL30vaA1XtINNJM-GDdg-36">
          <mxGeometry x="42.5" y="90" width="55" height="27.5" as="geometry" />
        </mxCell>
        <mxCell id="xL30vaA1XtINNJM-GDdg-45" value="DriftContinue" style="rounded=0;whiteSpace=wrap;html=1;align=left;" vertex="1" parent="xL30vaA1XtINNJM-GDdg-36">
          <mxGeometry x="185" y="31.25" width="85" height="30" as="geometry" />
        </mxCell>
        <mxCell id="xL30vaA1XtINNJM-GDdg-47" value="DriftContinue" style="swimlane;" vertex="1" parent="WIyWlLk6GJQsqaUBKTNV-1">
          <mxGeometry x="469" y="747.5" width="285" height="292.5" as="geometry" />
        </mxCell>
        <mxCell id="xL30vaA1XtINNJM-GDdg-48" style="edgeStyle=orthogonalEdgeStyle;rounded=0;orthogonalLoop=1;jettySize=auto;html=1;exitX=0.5;exitY=1;exitDx=0;exitDy=0;entryX=0.5;entryY=0;entryDx=0;entryDy=0;" edge="1" parent="xL30vaA1XtINNJM-GDdg-47" source="xL30vaA1XtINNJM-GDdg-50" target="xL30vaA1XtINNJM-GDdg-51">
          <mxGeometry relative="1" as="geometry" />
        </mxCell>
        <mxCell id="xL30vaA1XtINNJM-GDdg-49" style="edgeStyle=orthogonalEdgeStyle;rounded=0;orthogonalLoop=1;jettySize=auto;html=1;exitX=1;exitY=0.5;exitDx=0;exitDy=0;entryX=0;entryY=0.5;entryDx=0;entryDy=0;" edge="1" parent="xL30vaA1XtINNJM-GDdg-47" source="xL30vaA1XtINNJM-GDdg-50" target="xL30vaA1XtINNJM-GDdg-52">
          <mxGeometry relative="1" as="geometry" />
        </mxCell>
        <mxCell id="xL30vaA1XtINNJM-GDdg-50" value="&lt;font style=&quot;font-size: 9px&quot;&gt;누르는 방향키가 진행방향과 같나?&lt;/font&gt;" style="rhombus;whiteSpace=wrap;html=1;" vertex="1" parent="xL30vaA1XtINNJM-GDdg-47">
          <mxGeometry y="31.25" width="140" height="47.5" as="geometry" />
        </mxCell>
        <mxCell id="xL30vaA1XtINNJM-GDdg-54" style="edgeStyle=orthogonalEdgeStyle;rounded=0;orthogonalLoop=1;jettySize=auto;html=1;exitX=1;exitY=0.5;exitDx=0;exitDy=0;entryX=0.25;entryY=0;entryDx=0;entryDy=0;fontSize=9;" edge="1" parent="xL30vaA1XtINNJM-GDdg-47" source="xL30vaA1XtINNJM-GDdg-51" target="xL30vaA1XtINNJM-GDdg-53">
          <mxGeometry relative="1" as="geometry" />
        </mxCell>
        <mxCell id="xL30vaA1XtINNJM-GDdg-51" value="구심력 증가" style="rounded=0;whiteSpace=wrap;html=1;align=left;" vertex="1" parent="xL30vaA1XtINNJM-GDdg-47">
          <mxGeometry x="36.25" y="100" width="67.5" height="27.5" as="geometry" />
        </mxCell>
        <mxCell id="xL30vaA1XtINNJM-GDdg-56" style="edgeStyle=orthogonalEdgeStyle;rounded=0;orthogonalLoop=1;jettySize=auto;html=1;exitX=0.5;exitY=1;exitDx=0;exitDy=0;entryX=0.68;entryY=-0.083;entryDx=0;entryDy=0;entryPerimeter=0;fontSize=9;" edge="1" parent="xL30vaA1XtINNJM-GDdg-47" source="xL30vaA1XtINNJM-GDdg-52" target="xL30vaA1XtINNJM-GDdg-53">
          <mxGeometry relative="1" as="geometry">
            <Array as="points">
              <mxPoint x="223" y="120" />
              <mxPoint x="161" y="120" />
            </Array>
          </mxGeometry>
        </mxCell>
        <mxCell id="xL30vaA1XtINNJM-GDdg-52" value="구심력 감소" style="rounded=0;whiteSpace=wrap;html=1;align=left;" vertex="1" parent="xL30vaA1XtINNJM-GDdg-47">
          <mxGeometry x="185" y="40" width="75" height="30" as="geometry" />
        </mxCell>
        <mxCell id="xL30vaA1XtINNJM-GDdg-53" value="구심력 감소" style="rounded=0;whiteSpace=wrap;html=1;align=left;" vertex="1" parent="xL30vaA1XtINNJM-GDdg-47">
          <mxGeometry x="110" y="140" width="75" height="30" as="geometry" />
        </mxCell>
        <mxCell id="xL30vaA1XtINNJM-GDdg-59" style="edgeStyle=orthogonalEdgeStyle;rounded=0;orthogonalLoop=1;jettySize=auto;html=1;exitX=0.5;exitY=1;exitDx=0;exitDy=0;entryX=0.5;entryY=0;entryDx=0;entryDy=0;fontSize=9;" edge="1" parent="xL30vaA1XtINNJM-GDdg-47" source="xL30vaA1XtINNJM-GDdg-57" target="xL30vaA1XtINNJM-GDdg-58">
          <mxGeometry relative="1" as="geometry" />
        </mxCell>
        <mxCell id="xL30vaA1XtINNJM-GDdg-57" value="&lt;font style=&quot;font-size: 9px&quot;&gt;구심력이 드리프트 탈출력보다 낮은가?&lt;/font&gt;" style="rhombus;whiteSpace=wrap;html=1;" vertex="1" parent="xL30vaA1XtINNJM-GDdg-47">
          <mxGeometry y="170" width="140" height="47.5" as="geometry" />
        </mxCell>
        <mxCell id="xL30vaA1XtINNJM-GDdg-58" value="전진속력 증가" style="rounded=0;whiteSpace=wrap;html=1;align=left;" vertex="1" parent="xL30vaA1XtINNJM-GDdg-47">
          <mxGeometry x="28.130000000000003" y="232.5" width="83.75" height="27.5" as="geometry" />
        </mxCell>
        <mxCell id="xL30vaA1XtINNJM-GDdg-63" value="DriftEnd" style="rounded=0;whiteSpace=wrap;html=1;align=left;" vertex="1" parent="xL30vaA1XtINNJM-GDdg-47">
          <mxGeometry x="135" y="232.5" width="83.75" height="27.5" as="geometry" />
        </mxCell>
        <mxCell id="xL30vaA1XtINNJM-GDdg-60" style="edgeStyle=orthogonalEdgeStyle;rounded=0;orthogonalLoop=1;jettySize=auto;html=1;exitX=1;exitY=0.5;exitDx=0;exitDy=0;fontSize=9;" edge="1" parent="WIyWlLk6GJQsqaUBKTNV-1" source="xL30vaA1XtINNJM-GDdg-58">
          <mxGeometry relative="1" as="geometry">
            <mxPoint x="604" y="994.1666666666667" as="targetPoint" />
          </mxGeometry>
        </mxCell>
      </root>
    </mxGraphModel>
  </diagram>
</mxfile>
